<svg id="Calque_1" data-name="Calque 1" xmlns="http://www.w3.org/2000/svg" viewBox="0 0 224.31 35"><defs><style>.cls-1{fill:#8fc965;}.cls-2{fill:#419b5a;}.cls-3{fill:#fff;}</style></defs><rect class="cls-1" width="117.03" height="35"/><rect class="cls-2" x="115.01" width="109.34" height="35"/><path class="cls-3" d="M17.33,22H14.22V13.47h2.92a3.52,3.52,0,0,1,2.2.58,2,2,0,0,1,.76,1.73h0a1.83,1.83,0,0,1-.32,1,2,2,0,0,1-.92.73h0a1.93,1.93,0,0,1,1.07.7,2.08,2.08,0,0,1,.38,1.25h0a2.27,2.27,0,0,1-.78,1.85,3.34,3.34,0,0,1-2.2.64ZM15.7,18.15v2.67h1.65a1.62,1.62,0,0,0,1.09-.35,1.21,1.21,0,0,0,.39-1h0a1.22,1.22,0,0,0-1.36-1.36H15.7Zm0-3.49v2.4h1.45a1.67,1.67,0,0,0,1.08-.31,1.08,1.08,0,0,0,.39-.89h0a1.09,1.09,0,0,0-.36-.91,1.79,1.79,0,0,0-1.12-.29H15.7Zm8.94,4.5h0V13.47h1.48v5.71a1.79,1.79,0,0,0,.43,1.3,1.69,1.69,0,0,0,1.28.45h0q1.71,0,1.71-1.8h0V13.47H31v5.7a2.76,2.76,0,0,1-.87,2.15,3.3,3.3,0,0,1-2.32.8h0a3.29,3.29,0,0,1-2.33-.79A2.79,2.79,0,0,1,24.64,19.16ZM37.15,22H35.67V13.47h1.48Zm10.17,0H42V13.47h1.48v7.35h3.88Zm5.8-7.34H50.49V13.47h6.76v1.19H54.59V22H53.12ZM68.37,22l-2-8.53h1.47l1.33,6.41,1.62-6.41h1.25l1.61,6.42L75,13.47h1.47l-2,8.53H73.07l-1.62-6.23L69.79,22ZM82.1,22H80.62V13.47H82.1Zm6.49-7.34H86V13.47h6.77v1.19H90.06V22H88.59ZM98,22H96.48V13.47H98V17h3.81V13.47h1.48V22h-1.48V18.21H98Z"/><path class="cls-3" d="M131.6,22h-2.38V13.6h3.84a4.82,4.82,0,0,1,2,.38,3,3,0,0,1,1.3,1.08,3,3,0,0,1,.45,1.65h0A2.8,2.8,0,0,1,135,19.42a4.82,4.82,0,0,1-2,.38H131.6Zm0-6.53v2.46h1.32a1.66,1.66,0,0,0,1.1-.32,1.11,1.11,0,0,0,.37-.9h0a1.13,1.13,0,0,0-.37-.91,1.61,1.61,0,0,0-1.1-.33H131.6ZM143.92,22h-2.37V13.6h2.37Zm7,0h-2.71l3.06-4.25-2.93-4.15H151L152.73,16l1.65-2.42H157L154,17.66,157.14,22h-2.73l-1.74-2.6Zm17.22,0h-6.74V13.6H168v1.84h-4.24v1.41h3.73v1.78h-3.73v1.54h4.39Zm11.19,0H173V13.6h2.37v6.51h4Zm3.83-.76h0l.78-1.75a5.08,5.08,0,0,0,1.31.6,5,5,0,0,0,1.47.23h0c.91,0,1.36-.23,1.37-.68h0a.56.56,0,0,0-.39-.53,6.93,6.93,0,0,0-1.26-.37h0a14.31,14.31,0,0,1-1.59-.44,2.7,2.7,0,0,1-1.08-.75,2,2,0,0,1-.46-1.39h0a2.42,2.42,0,0,1,.42-1.39,2.85,2.85,0,0,1,1.25-1,5.19,5.19,0,0,1,2.05-.36h0a6.91,6.91,0,0,1,1.63.19,4.72,4.72,0,0,1,1.42.55h0l-.73,1.76a5,5,0,0,0-2.34-.65h0a2,2,0,0,0-1,.21.64.64,0,0,0-.32.55h0a.54.54,0,0,0,.38.5,7.21,7.21,0,0,0,1.24.35h0a13.17,13.17,0,0,1,1.59.44,2.68,2.68,0,0,1,1.09.74,2,2,0,0,1,.46,1.39h0a2.45,2.45,0,0,1-.41,1.37,2.81,2.81,0,0,1-1.26,1,5.07,5.07,0,0,1-2.05.37h0a7.68,7.68,0,0,1-2-.25A4.7,4.7,0,0,1,183.19,21.24Z"/><path class="cls-3" d="M199.94,24l-.32.27a.57.57,0,0,1-.33.11.52.52,0,0,1-.52-.52V15.92a5.61,5.61,0,0,1,11.22,0v7.89a.52.52,0,0,1-.84.41l-.33-.27a.94.94,0,0,0-1.29.12l-.89,1a.51.51,0,0,1-.78,0l-.77-.89a.93.93,0,0,0-1.41,0l-.78.89a.51.51,0,0,1-.78,0l-.89-1A.94.94,0,0,0,199.94,24Z"/><circle class="cls-2" cx="204.37" cy="17" r="0.59"/><circle class="cls-2" cx="202.5" cy="15.48" r="0.96"/><circle class="cls-3" cx="202.5" cy="15.48" r="0.32"/><circle class="cls-2" cx="206.27" cy="15.48" r="0.96"/><circle class="cls-3" cx="206.27" cy="15.48" r="0.32"/><path class="cls-2" d="M202,20a2.54,2.54,0,0,0,1.29.93,3.18,3.18,0,0,0,2.17-.09,2.7,2.7,0,0,0,1.4-1.32,1.07,1.07,0,0,0,.16-.93.58.58,0,0,0-.25-.34c-.49-.3-1.18.55-2.43.53a6.2,6.2,0,0,1-1.78-.35c-.38-.15-.54-.27-.69-.2C201.54,18.35,201.57,19.29,202,20Z"/><rect class="cls-3" x="203.09" y="18.51" width="0.74" height="0.98"/></svg>