<svg xmlns="http://www.w3.org/2000/svg" width="195.87" height="35" viewBox="0 0 195.87 35"><rect class="svg__rect" x="0" y="0" width="117.03" height="35" fill="#31C4F3"/><rect class="svg__rect" x="115.03" y="0" width="80.84" height="35" fill="#389AD5"/><path class="svg__text" d="M17.33 22L14.22 22L14.22 13.47L17.14 13.47Q18.59 13.47 19.34 14.05Q20.10 14.63 20.10 15.78L20.10 15.78Q20.10 16.36 19.78 16.83Q19.47 17.30 18.86 17.56L18.86 17.56Q19.55 17.75 19.93 18.26Q20.31 18.78 20.31 19.51L20.31 19.51Q20.31 20.71 19.53 21.36Q18.76 22 17.33 22L17.33 22ZM15.70 18.15L15.70 20.82L17.35 20.82Q18.04 20.82 18.44 20.47Q18.83 20.13 18.83 19.51L18.83 19.51Q18.83 18.18 17.47 18.15L17.47 18.15L15.70 18.15ZM15.70 14.66L15.70 17.06L17.15 17.06Q17.84 17.06 18.23 16.75Q18.62 16.43 18.62 15.86L18.62 15.86Q18.62 15.23 18.26 14.95Q17.90 14.66 17.14 14.66L17.14 14.66L15.70 14.66ZM24.64 19.16L24.64 19.16L24.64 13.47L26.12 13.47L26.12 19.18Q26.12 20.03 26.55 20.48Q26.98 20.93 27.83 20.93L27.83 20.93Q29.54 20.93 29.54 19.13L29.54 19.13L29.54 13.47L31.02 13.47L31.02 19.17Q31.02 20.53 30.15 21.32Q29.28 22.12 27.83 22.12L27.83 22.12Q26.36 22.12 25.50 21.33Q24.64 20.55 24.64 19.16ZM37.15 22L35.67 22L35.67 13.47L37.15 13.47L37.15 22ZM47.32 22L41.96 22L41.96 13.47L43.44 13.47L43.44 20.82L47.32 20.82L47.32 22ZM53.12 14.66L50.49 14.66L50.49 13.47L57.25 13.47L57.25 14.66L54.59 14.66L54.59 22L53.12 22L53.12 14.66ZM68.37 22L66.40 13.47L67.87 13.47L69.20 19.88L70.82 13.47L72.07 13.47L73.68 19.89L74.99 13.47L76.46 13.47L74.49 22L73.07 22L71.45 15.77L69.79 22L68.37 22ZM82.10 22L80.62 22L80.62 13.47L82.10 13.47L82.10 22ZM88.59 14.66L85.95 14.66L85.95 13.47L92.72 13.47L92.72 14.66L90.06 14.66L90.06 22L88.59 22L88.59 14.66ZM97.96 22L96.48 22L96.48 13.47L97.96 13.47L97.96 17.02L101.77 17.02L101.77 13.47L103.25 13.47L103.25 22L101.77 22L101.77 18.21L97.96 18.21L97.96 22Z" fill="#FFFFFF"/><path class="svg__text" d="M131.60 22L129.22 22L129.22 13.60L135.81 13.60L135.81 15.44L131.60 15.44L131.60 17.28L135.31 17.28L135.31 19.12L131.60 19.12L131.60 22ZM140.33 18.26L140.33 18.26L140.33 13.60L142.71 13.60L142.71 18.19Q142.71 20.20 144.31 20.20L144.31 20.20Q145.89 20.20 145.89 18.19L145.89 18.19L145.89 13.60L148.23 13.60L148.23 18.26Q148.23 20.13 147.19 21.15Q146.15 22.17 144.28 22.17L144.28 22.17Q142.41 22.17 141.37 21.15Q140.33 20.13 140.33 18.26ZM155.65 22L153.32 22L153.32 13.60L155.27 13.60L158.98 18.07L158.98 13.60L161.31 13.60L161.31 22L159.36 22L155.65 17.52L155.65 22ZM176.19 22L173.00 22L173.00 14.00L176.19 14.00L176.19 22ZM173.40 14.40L173.40 21.60L175.79 21.60L175.79 14.40L173.40 14.40ZM184.06 22L180.87 22L180.87 14.00L184.06 14.00L184.06 22ZM181.27 14.40L181.27 21.60L183.66 21.60L183.66 14.40L181.27 14.40Z" fill="#FFFFFF" x="128.03"/></svg>