<svg xmlns="http://www.w3.org/2000/svg" width="132.87" height="35" viewBox="0 0 132.87 35"><rect class="svg__rect" x="0" y="0" width="54.760000000000005" height="35" fill="#EA4560"/><rect class="svg__rect" x="52.760000000000005" y="0" width="80.11" height="35" fill="#F58194"/><path class="svg__text" d="M14.08 19.16L14.08 19.16L14.08 13.47L15.56 13.47L15.56 19.18Q15.56 20.03 15.99 20.48Q16.43 20.93 17.27 20.93L17.27 20.93Q18.98 20.93 18.98 19.13L18.98 19.13L18.98 13.47L20.46 13.47L20.46 19.17Q20.46 20.53 19.59 21.32Q18.72 22.12 17.27 22.12L17.27 22.12Q15.81 22.12 14.94 21.33Q14.08 20.55 14.08 19.16ZM24.59 19.42L24.59 19.42L26.08 19.42Q26.08 20.15 26.56 20.55Q27.04 20.95 27.93 20.95L27.93 20.95Q28.71 20.95 29.10 20.63Q29.49 20.32 29.49 19.80L29.49 19.80Q29.49 19.24 29.09 18.94Q28.70 18.63 27.66 18.32Q26.63 18.01 26.02 17.63L26.02 17.63Q24.86 16.90 24.86 15.72L24.86 15.72Q24.86 14.69 25.70 14.02Q26.54 13.35 27.88 13.35L27.88 13.35Q28.77 13.35 29.47 13.68Q30.17 14.01 30.56 14.61Q30.96 15.22 30.96 15.96L30.96 15.96L29.49 15.96Q29.49 15.29 29.07 14.91Q28.65 14.54 27.87 14.54L27.87 14.54Q27.14 14.54 26.74 14.85Q26.34 15.16 26.34 15.71L26.34 15.71Q26.34 16.18 26.77 16.50Q27.21 16.81 28.20 17.10Q29.20 17.40 29.80 17.78Q30.41 18.16 30.69 18.65Q30.97 19.13 30.97 19.79L30.97 19.79Q30.97 20.86 30.15 21.49Q29.33 22.12 27.93 22.12L27.93 22.12Q27.01 22.12 26.23 21.77Q25.46 21.43 25.02 20.83Q24.59 20.22 24.59 19.42ZM40.84 22L35.26 22L35.26 13.47L40.80 13.47L40.80 14.66L36.74 14.66L36.74 17.02L40.24 17.02L40.24 18.19L36.74 18.19L36.74 20.82L40.84 20.82L40.84 22Z" fill="#FFFFFF"/><path class="svg__text" d="M68.37 22L65.94 22L69.65 13.60L71.99 13.60L75.71 22L73.24 22L72.58 20.37L69.03 20.37L68.37 22ZM70.80 15.93L69.72 18.61L71.88 18.61L70.80 15.93ZM81.71 22L79.00 22L82.06 17.75L79.13 13.60L81.81 13.60L83.49 16.02L85.14 13.60L87.71 13.60L84.78 17.66L87.91 22L85.17 22L83.43 19.40L81.71 22ZM94.57 22L92.19 22L92.19 13.60L94.57 13.60L94.57 22ZM99.32 17.80L99.32 17.80Q99.32 16.55 99.92 15.55Q100.52 14.56 101.59 14.00Q102.65 13.43 103.98 13.43L103.98 13.43Q105.31 13.43 106.37 14.00Q107.44 14.56 108.04 15.55Q108.65 16.55 108.65 17.80L108.65 17.80Q108.65 19.05 108.04 20.04Q107.44 21.04 106.38 21.60Q105.32 22.17 103.98 22.17L103.98 22.17Q102.65 22.17 101.59 21.60Q100.52 21.04 99.92 20.04Q99.32 19.05 99.32 17.80ZM101.71 17.80L101.71 17.80Q101.71 18.51 102.01 19.05Q102.32 19.60 102.83 19.90Q103.35 20.20 103.98 20.20L103.98 20.20Q104.62 20.20 105.13 19.90Q105.65 19.60 105.95 19.05Q106.25 18.51 106.25 17.80L106.25 17.80Q106.25 17.09 105.95 16.54Q105.65 16 105.13 15.70Q104.62 15.40 103.98 15.40L103.98 15.40Q103.34 15.40 102.83 15.70Q102.32 16 102.01 16.54Q101.71 17.09 101.71 17.80ZM112.79 21.24L112.79 21.24L113.57 19.49Q114.13 19.86 114.88 20.09Q115.62 20.32 116.34 20.32L116.34 20.32Q117.71 20.32 117.71 19.64L117.71 19.64Q117.71 19.28 117.32 19.11Q116.93 18.93 116.07 18.74L116.07 18.74Q115.12 18.53 114.48 18.30Q113.85 18.06 113.39 17.55Q112.94 17.03 112.94 16.16L112.94 16.16Q112.94 15.39 113.36 14.77Q113.78 14.15 114.61 13.79Q115.45 13.43 116.65 13.43L116.65 13.43Q117.48 13.43 118.28 13.62Q119.09 13.80 119.71 14.17L119.71 14.17L118.97 15.93Q117.77 15.28 116.64 15.28L116.64 15.28Q115.93 15.28 115.61 15.49Q115.29 15.70 115.29 16.04L115.29 16.04Q115.29 16.37 115.67 16.54Q116.06 16.71 116.90 16.89L116.90 16.89Q117.87 17.10 118.50 17.33Q119.13 17.56 119.59 18.07Q120.05 18.58 120.05 19.46L120.05 19.46Q120.05 20.21 119.63 20.83Q119.21 21.44 118.37 21.80Q117.53 22.17 116.33 22.17L116.33 22.17Q115.31 22.17 114.35 21.92Q113.39 21.67 112.79 21.24Z" fill="#FFFFFF" x="65.76"/></svg>