<svg xmlns="http://www.w3.org/2000/svg" width="171.22" height="35" viewBox="0 0 171.22 35"><rect class="svg__rect" x="0" y="0" width="54.760000000000005" height="35" fill="#EA4560"/><rect class="svg__rect" x="52.760000000000005" y="0" width="118.46" height="35" fill="#F58194"/><path class="svg__text" d="M14.08 19.16L14.08 19.16L14.08 13.47L15.56 13.47L15.56 19.18Q15.56 20.03 15.99 20.48Q16.43 20.93 17.27 20.93L17.27 20.93Q18.98 20.93 18.98 19.13L18.98 19.13L18.98 13.47L20.46 13.47L20.46 19.17Q20.46 20.53 19.59 21.32Q18.72 22.12 17.27 22.12L17.27 22.12Q15.81 22.12 14.94 21.33Q14.08 20.55 14.08 19.16ZM24.59 19.42L24.59 19.42L26.08 19.42Q26.08 20.15 26.56 20.55Q27.04 20.95 27.93 20.95L27.93 20.95Q28.71 20.95 29.10 20.63Q29.49 20.32 29.49 19.80L29.49 19.80Q29.49 19.24 29.09 18.94Q28.70 18.63 27.66 18.32Q26.63 18.01 26.02 17.63L26.02 17.63Q24.86 16.90 24.86 15.72L24.86 15.72Q24.86 14.69 25.70 14.02Q26.54 13.35 27.88 13.35L27.88 13.35Q28.77 13.35 29.47 13.68Q30.17 14.01 30.56 14.61Q30.96 15.22 30.96 15.96L30.96 15.96L29.49 15.96Q29.49 15.29 29.07 14.91Q28.65 14.54 27.87 14.54L27.87 14.54Q27.14 14.54 26.74 14.85Q26.34 15.16 26.34 15.71L26.34 15.71Q26.34 16.18 26.77 16.50Q27.21 16.81 28.20 17.10Q29.20 17.40 29.80 17.78Q30.41 18.16 30.69 18.65Q30.97 19.13 30.97 19.79L30.97 19.79Q30.97 20.86 30.15 21.49Q29.33 22.12 27.93 22.12L27.93 22.12Q27.01 22.12 26.23 21.77Q25.46 21.43 25.02 20.83Q24.59 20.22 24.59 19.42ZM40.84 22L35.26 22L35.26 13.47L40.80 13.47L40.80 14.66L36.74 14.66L36.74 17.02L40.24 17.02L40.24 18.19L36.74 18.19L36.74 20.82L40.84 20.82L40.84 22Z" fill="#FFFFFF"/><path class="svg__text" d="M69.33 22L66.95 22L66.95 13.60L70.79 13.60Q71.93 13.60 72.77 13.98Q73.61 14.35 74.07 15.06Q74.52 15.76 74.52 16.71L74.52 16.71Q74.52 17.62 74.10 18.30Q73.67 18.98 72.88 19.36L72.88 19.36L74.69 22L72.15 22L70.62 19.77L69.33 19.77L69.33 22ZM69.33 15.47L69.33 17.93L70.65 17.93Q71.38 17.93 71.75 17.61Q72.12 17.29 72.12 16.71L72.12 16.71Q72.12 16.12 71.75 15.79Q71.38 15.47 70.65 15.47L70.65 15.47L69.33 15.47ZM86.06 22L79.31 22L79.31 13.60L85.90 13.60L85.90 15.44L81.67 15.44L81.67 16.85L85.40 16.85L85.40 18.63L81.67 18.63L81.67 20.17L86.06 20.17L86.06 22ZM90.43 17.80L90.43 17.80Q90.43 16.54 91.03 15.54Q91.63 14.55 92.68 13.99Q93.73 13.43 95.05 13.43L95.05 13.43Q96.20 13.43 97.13 13.84Q98.05 14.25 98.66 15.02L98.66 15.02L97.15 16.39Q96.34 15.40 95.17 15.40L95.17 15.40Q94.49 15.40 93.95 15.70Q93.42 16 93.12 16.54Q92.83 17.09 92.83 17.80L92.83 17.80Q92.83 18.51 93.12 19.05Q93.42 19.60 93.95 19.90Q94.49 20.20 95.17 20.20L95.17 20.20Q96.34 20.20 97.15 19.22L97.15 19.22L98.66 20.58Q98.06 21.35 97.13 21.76Q96.20 22.17 95.05 22.17L95.05 22.17Q93.73 22.17 92.68 21.61Q91.63 21.05 91.03 20.05Q90.43 19.06 90.43 17.80ZM105.58 22L103.20 22L103.20 13.60L105.58 13.60L105.58 16.76L108.82 16.76L108.82 13.60L111.19 13.60L111.19 22L108.82 22L108.82 18.72L105.58 18.72L105.58 22ZM117.77 22L115.35 22L119.06 13.60L121.40 13.60L125.11 22L122.65 22L121.98 20.37L118.43 20.37L117.77 22ZM120.21 15.93L119.13 18.61L121.29 18.61L120.21 15.93ZM131.65 22L129.27 22L129.27 13.60L133.11 13.60Q134.25 13.60 135.09 13.98Q135.93 14.35 136.39 15.06Q136.84 15.76 136.84 16.71L136.84 16.71Q136.84 17.62 136.42 18.30Q135.99 18.98 135.20 19.36L135.20 19.36L137.01 22L134.47 22L132.94 19.77L131.65 19.77L131.65 22ZM131.65 15.47L131.65 17.93L132.97 17.93Q133.70 17.93 134.07 17.61Q134.44 17.29 134.44 16.71L134.44 16.71Q134.44 16.12 134.07 15.79Q133.70 15.47 132.97 15.47L132.97 15.47L131.65 15.47ZM143.42 15.48L140.84 15.48L140.84 13.60L148.36 13.60L148.36 15.48L145.80 15.48L145.80 22L143.42 22L143.42 15.48ZM152.15 21.24L152.15 21.24L152.93 19.49Q153.49 19.86 154.23 20.09Q154.98 20.32 155.70 20.32L155.70 20.32Q157.07 20.32 157.07 19.64L157.07 19.64Q157.07 19.28 156.68 19.11Q156.29 18.93 155.42 18.74L155.42 18.74Q154.48 18.53 153.84 18.30Q153.20 18.06 152.75 17.55Q152.30 17.03 152.30 16.16L152.30 16.16Q152.30 15.39 152.71 14.77Q153.13 14.15 153.97 13.79Q154.80 13.43 156.01 13.43L156.01 13.43Q156.84 13.43 157.64 13.62Q158.45 13.80 159.06 14.17L159.06 14.17L158.33 15.93Q157.13 15.28 156.00 15.28L156.00 15.28Q155.29 15.28 154.97 15.49Q154.65 15.70 154.65 16.04L154.65 16.04Q154.65 16.37 155.03 16.54Q155.41 16.71 156.26 16.89L156.26 16.89Q157.22 17.10 157.85 17.33Q158.48 17.56 158.95 18.07Q159.41 18.58 159.41 19.46L159.41 19.46Q159.41 20.21 158.99 20.83Q158.57 21.44 157.73 21.80Q156.89 22.17 155.69 22.17L155.69 22.17Q154.67 22.17 153.71 21.92Q152.75 21.67 152.15 21.24Z" fill="#FFFFFF" x="65.76"/></svg>