<svg xmlns="http://www.w3.org/2000/svg" width="134.66" height="35" viewBox="0 0 134.66 35"><rect class="svg__rect" x="0" y="0" width="54.760000000000005" height="35" fill="#31C4F3"/><rect class="svg__rect" x="52.760000000000005" y="0" width="81.89999999999999" height="35" fill="#389AD5"/><path class="svg__text" d="M14.08 19.16L14.08 19.16L14.08 13.47L15.56 13.47L15.56 19.18Q15.56 20.03 15.99 20.48Q16.43 20.93 17.27 20.93L17.27 20.93Q18.98 20.93 18.98 19.13L18.98 19.13L18.98 13.47L20.46 13.47L20.46 19.17Q20.46 20.53 19.59 21.32Q18.72 22.12 17.27 22.12L17.27 22.12Q15.81 22.12 14.94 21.33Q14.08 20.55 14.08 19.16ZM24.59 19.42L24.59 19.42L26.08 19.42Q26.08 20.15 26.56 20.55Q27.04 20.95 27.93 20.95L27.93 20.95Q28.71 20.95 29.10 20.63Q29.49 20.32 29.49 19.80L29.49 19.80Q29.49 19.24 29.09 18.94Q28.70 18.63 27.66 18.32Q26.63 18.01 26.02 17.63L26.02 17.63Q24.86 16.90 24.86 15.72L24.86 15.72Q24.86 14.69 25.70 14.02Q26.54 13.35 27.88 13.35L27.88 13.35Q28.77 13.35 29.47 13.68Q30.17 14.01 30.56 14.61Q30.96 15.22 30.96 15.96L30.96 15.96L29.49 15.96Q29.49 15.29 29.07 14.91Q28.65 14.54 27.87 14.54L27.87 14.54Q27.14 14.54 26.74 14.85Q26.34 15.16 26.34 15.71L26.34 15.71Q26.34 16.18 26.77 16.50Q27.21 16.81 28.20 17.10Q29.20 17.40 29.80 17.78Q30.41 18.16 30.69 18.65Q30.97 19.13 30.97 19.79L30.97 19.79Q30.97 20.86 30.15 21.49Q29.33 22.12 27.93 22.12L27.93 22.12Q27.01 22.12 26.23 21.77Q25.46 21.43 25.02 20.83Q24.59 20.22 24.59 19.42ZM40.84 22L35.26 22L35.26 13.47L40.80 13.47L40.80 14.66L36.74 14.66L36.74 17.02L40.24 17.02L40.24 18.19L36.74 18.19L36.74 20.82L40.84 20.82L40.84 22Z" fill="#FFFFFF"/><path class="svg__text" d="M69.33 22L66.95 22L66.95 13.60L70.79 13.60Q71.93 13.60 72.77 13.98Q73.61 14.35 74.07 15.06Q74.52 15.76 74.52 16.71L74.52 16.71Q74.52 17.62 74.10 18.30Q73.67 18.98 72.88 19.36L72.88 19.36L74.69 22L72.15 22L70.62 19.77L69.33 19.77L69.33 22ZM69.33 15.47L69.33 17.93L70.65 17.93Q71.38 17.93 71.75 17.61Q72.12 17.29 72.12 16.71L72.12 16.71Q72.12 16.12 71.75 15.79Q71.38 15.47 70.65 15.47L70.65 15.47L69.33 15.47ZM86.06 22L79.31 22L79.31 13.60L85.90 13.60L85.90 15.44L81.67 15.44L81.67 16.85L85.40 16.85L85.40 18.63L81.67 18.63L81.67 20.17L86.06 20.17L86.06 22ZM92.28 22L89.85 22L93.56 13.60L95.90 13.60L99.62 22L97.15 22L96.49 20.37L92.94 20.37L92.28 22ZM94.72 15.93L93.63 18.61L95.79 18.61L94.72 15.93ZM103.35 17.80L103.35 17.80Q103.35 16.54 103.94 15.54Q104.54 14.55 105.59 13.99Q106.65 13.43 107.96 13.43L107.96 13.43Q109.12 13.43 110.04 13.84Q110.96 14.25 111.58 15.02L111.58 15.02L110.07 16.39Q109.25 15.40 108.09 15.40L108.09 15.40Q107.40 15.40 106.87 15.70Q106.33 16 106.04 16.54Q105.74 17.09 105.74 17.80L105.74 17.80Q105.74 18.51 106.04 19.05Q106.33 19.60 106.87 19.90Q107.40 20.20 108.09 20.20L108.09 20.20Q109.25 20.20 110.07 19.22L110.07 19.22L111.58 20.58Q110.97 21.35 110.04 21.76Q109.12 22.17 107.96 22.17L107.96 22.17Q106.65 22.17 105.59 21.61Q104.54 21.05 103.94 20.05Q103.35 19.06 103.35 17.80ZM117.91 15.48L115.32 15.48L115.32 13.60L122.85 13.60L122.85 15.48L120.28 15.48L120.28 22L117.91 22L117.91 15.48Z" fill="#FFFFFF" x="65.76"/></svg>